<svg width="48" height="48" viewBox="0 0 48 48" fill="none" xmlns="http://www.w3.org/2000/svg">
<path d="M37.5 28.5C36.426 28.4995 35.3676 28.7567 34.4137 29.25L30.4031 26.13C30.6211 25.4824 30.7381 24.8051 30.75 24.1219L32.6906 23.4769C33.7882 24.5914 35.2388 25.2901 36.7945 25.4536C38.3502 25.6171 39.9144 25.2352 41.2197 24.3731C42.525 23.5111 43.4904 22.2225 43.9509 20.7275C44.4113 19.2325 44.3383 17.6241 43.7442 16.177C43.1501 14.7299 42.0718 13.5341 40.6938 12.794C39.3157 12.0538 37.7233 11.8153 36.1888 12.1191C34.6544 12.423 33.273 13.2503 32.281 14.4598C31.289 15.6693 30.7478 17.1857 30.75 18.75C30.75 18.9581 30.7612 19.1644 30.78 19.3687L29.3212 19.8544C28.6907 19.0442 27.8837 18.3885 26.9616 17.9372C26.0395 17.4859 25.0266 17.2509 24 17.25C23.8125 17.25 23.6475 17.25 23.4731 17.2725L22.6387 15.3975C23.7775 14.3174 24.5043 12.8741 24.6941 11.3161C24.8838 9.75799 24.5247 8.1825 23.6784 6.8606C22.8321 5.5387 21.5517 4.55305 20.0572 4.07319C18.5628 3.59333 16.9478 3.64927 15.4902 4.23139C14.0326 4.8135 12.8233 5.8854 12.0706 7.26269C11.3178 8.63997 11.0685 10.2365 11.3656 11.7778C11.6627 13.319 12.4877 14.7084 13.6985 15.7072C14.9093 16.7059 16.4304 17.2515 18 17.25C18.1875 17.25 18.3525 17.25 18.5268 17.2275L19.3612 19.1025C18.3727 20.0356 17.6898 21.2461 17.4023 22.5748C17.1148 23.9034 17.2362 25.2879 17.7506 26.5462L13.7606 30.0919C12.3665 29.3223 10.7452 29.0704 9.18338 29.3807C7.62153 29.6909 6.21964 30.5434 5.22553 31.7873C4.23141 33.0313 3.70908 34.5866 3.75086 36.1784C3.79264 37.7702 4.39584 39.296 5.45383 40.4861C6.51183 41.6762 7.9565 42.4539 9.53248 42.6818C11.1085 42.9097 12.7143 42.5731 14.0661 41.7315C15.4179 40.8899 16.4286 39.5975 16.9196 38.0827C17.4106 36.568 17.3503 34.9284 16.7493 33.4537L20.7393 29.9081C21.8028 30.4966 23.0058 30.7863 24.2206 30.7463C25.4354 30.7064 26.6168 30.3383 27.6393 29.6812L31.3125 32.5425C30.7294 33.8741 30.5917 35.3584 30.9201 36.7746C31.2484 38.1907 32.0252 39.463 33.1348 40.4022C34.2444 41.3414 35.6275 41.8972 37.0785 41.9871C38.5294 42.0769 39.9706 41.696 41.1876 40.9009C42.4045 40.1058 43.3323 38.939 43.8329 37.5742C44.3334 36.2094 44.38 34.7194 43.9656 33.326C43.5513 31.9326 42.6982 30.7102 41.5332 29.8407C40.3682 28.9711 38.9537 28.5009 37.5 28.5ZM37.5 16.5C37.945 16.5 38.38 16.632 38.75 16.8792C39.12 17.1264 39.4084 17.4778 39.5787 17.889C39.749 18.3001 39.7935 18.7525 39.7067 19.189C39.6199 19.6254 39.4056 20.0263 39.0909 20.341C38.7763 20.6557 38.3754 20.8699 37.9389 20.9568C37.5024 21.0436 37.05 20.999 36.6389 20.8287C36.2278 20.6584 35.8764 20.37 35.6291 20C35.3819 19.63 35.25 19.195 35.25 18.75C35.25 18.1533 35.487 17.581 35.909 17.159C36.3309 16.7371 36.9032 16.5 37.5 16.5ZM15.75 10.5C15.75 10.055 15.8819 9.61998 16.1291 9.24996C16.3764 8.87995 16.7278 8.59157 17.1389 8.42127C17.55 8.25097 18.0024 8.20641 18.4389 8.29323C18.8754 8.38005 19.2763 8.59434 19.5909 8.90901C19.9056 9.22368 20.1199 9.62459 20.2067 10.061C20.2935 10.4975 20.249 10.9499 20.0787 11.361C19.9084 11.7722 19.62 12.1236 19.25 12.3708C18.88 12.618 18.445 12.75 18 12.75C17.4032 12.75 16.8309 12.5129 16.409 12.091C15.987 11.669 15.75 11.0967 15.75 10.5ZM10.5 38.25C10.0549 38.25 9.61993 38.118 9.24992 37.8708C8.87991 37.6236 8.59152 37.2722 8.42122 36.861C8.25092 36.4499 8.20637 35.9975 8.29318 35.561C8.38 35.1246 8.59429 34.7237 8.90896 34.409C9.22363 34.0943 9.62454 33.88 10.061 33.7932C10.4975 33.7064 10.9499 33.751 11.361 33.9213C11.7721 34.0916 12.1235 34.38 12.3708 34.75C12.618 35.12 12.75 35.555 12.75 36C12.75 36.5967 12.5129 37.169 12.0909 37.591C11.669 38.0129 11.0967 38.25 10.5 38.25ZM21.75 24C21.75 23.555 21.8819 23.12 22.1291 22.75C22.3764 22.38 22.7278 22.0916 23.1389 21.9213C23.55 21.751 24.0024 21.7064 24.4389 21.7932C24.8754 21.88 25.2763 22.0943 25.5909 22.409C25.9056 22.7237 26.1199 23.1246 26.2067 23.561C26.2935 23.9975 26.249 24.4499 26.0787 24.861C25.9084 25.2722 25.62 25.6236 25.25 25.8708C24.88 26.118 24.445 26.25 24 26.25C23.4032 26.25 22.8309 26.0129 22.409 25.591C21.987 25.169 21.75 24.5967 21.75 24ZM37.5 37.5C37.0549 37.5 36.6199 37.368 36.2499 37.1208C35.8799 36.8736 35.5915 36.5222 35.4212 36.111C35.2509 35.6999 35.2064 35.2475 35.2932 34.811C35.38 34.3746 35.5943 33.9737 35.909 33.659C36.2236 33.3443 36.6245 33.13 37.061 33.0432C37.4975 32.9564 37.9499 33.001 38.361 33.1713C38.7721 33.3416 39.1235 33.63 39.3708 34C39.618 34.37 39.75 34.805 39.75 35.25C39.75 35.8467 39.5129 36.419 39.0909 36.841C38.669 37.2629 38.0967 37.5 37.5 37.5Z" fill="#456A50"/>
</svg>
